{"title":"The.Frankenstein.Syndrome.2010.DVDSCR.XviD-XtremE","uid":6393763,"size":1140111394,"categoryP":"video","categoryS":"movies","magnet":"?xt=urn:btih:87eb6d8804ca9c274c6f4bd444164d8a1e2c0c8f&amp;dn=The.Frankenstein.Syndrome.2010.DVDSCR.XviD-XtremE&amp;tr=udp%3A%2F%2Ftracker.openbittorrent.com%3A80&amp;tr=udp%3A%2F%2Fopen.demonii.com%3A1337&amp;tr=udp%3A%2F%2Ftracker.coppersurfer.tk%3A6969&amp;tr=udp%3A%2F%2Fexodus.desync.com%3A6969","seeders":1,"leechers":0,"uploader":"SAFCukO09","files":4,"time":1305449749,"description":"General\n\nComplete name: The.Frankestein.Syndrome.2010.DVDSCR.XviD-XtremE.avi\n\nFormat : AVI\n\nFormat/Info: Audio Video Interleave\n\nFile size: 1.05 GiB\n\nDuration : 1h 29mn\n\nOverall bit rate : 1 687 Kbps\n\nWriting application: VirtualDubMod 1.5.4.1 (build 2178/release)\n\nWriting library: VirtualDubMod build 2178/release\n\n\n\nVideo\n\nID : 0\n\nFormat : MPEG-4 Visual\n\nFormat profile : Advanced Simple@L5\n\nFormat settings, BVOP: No\n\nFormat settings, QPel: No\n\nFormat settings, GMC : No warppoints\n\nFormat settings, Matrix: Custom\n\nCodec ID : XVID\n\nCodec ID/Hint: XviD\n\nDuration : 1h 29mn\n\nBit rate : 1 488 Kbps\n\nWidth: 720 pixels\n\nHeight : 304 pixels\n\nDisplay aspect ratio : 2.35:1\n\nFrame rate : 23.976 fps\n\nColor space: YUV\n\nChroma subsampling : 4:2:0\n\nBit depth: 8 bits\n\nScan type: Progressive\n\nCompression mode : Lossy\n\nBits/(Pixel*Frame) : 0.284\n\nStream size: 949 MiB (88%)\n\nWriting library: XviD 1.3.0.dev55\n\n\n\nAudio\n\nID : 1\n\nFormat : AC-3\n\nFormat/Info: Audio Coding 3\n\nMode extension : CM (complete main)\n\nCodec ID : 2000\n\nDuration : 1h 29mn\n\nBit rate mode: Constant\n\nBit rate : 192 Kbps\n\nChannel(s) : 2 channels\n\nChannel positions: Front: L R\n\nSampling rate: 48.0 KHz\n\nBit depth: 16 bits\n\nCompression mode : Lossy\n\nStream size: 122 MiB (11%)\n\nAlignment: Split accross interleaves\n\nInterleave, duration : 96 ms (2.30 video frames)\n\nInterleave, preload duration : 96 ms\n\nLanguage : English\n\n\nFR81RH.jpg\nJNJBIH.jpg\n1TE0N0.jpg\n\n &lt;a href=&quot;\nhttp://www.imdb.com/title/tt1337686/&quot; rel=&quot;nofollow&quot; target=&quot;_NEW&quot;&gt;\nhttp://www.imdb.com/title/tt1337686/&lt;/a&gt;\n\nStoryline\n\nA group of researchers conducting illegal stem cell research discover a cell anomaly that has the potential to regenerate dead tissue. Unable to conduct legal human trials, the researchers turn to corpses to test their serum.","torrent":{"xt":"urn:btih:87eb6d8804ca9c274c6f4bd444164d8a1e2c0c8f","amp;dn":"The.Frankenstein.Syndrome.2010.DVDSCR.XviD-XtremE","amp;tr":["udp%3A%2F%2Ftracker.openbittorrent.com%3A80","udp%3A%2F%2Fopen.demonii.com%3A1337","udp%3A%2F%2Ftracker.coppersurfer.tk%3A6969","udp%3A%2F%2Fexodus.desync.com%3A6969"],"infoHash":"87eb6d8804ca9c274c6f4bd444164d8a1e2c0c8f","infoHashBuffer":{"type":"Buffer","data":[135,235,109,136,4,202,156,39,76,111,75,212,68,22,77,138,30,44,12,143]},"announce":[],"urlList":[]}}